<?xml version="1.0" standalone="no"?><!DOCTYPE svg PUBLIC "-//W3C//DTD SVG 1.1//EN" "http://www.w3.org/Graphics/SVG/1.1/DTD/svg11.dtd"><svg t="1562132335487" class="icon" viewBox="0 0 1024 1024" version="1.1" xmlns="http://www.w3.org/2000/svg" p-id="3121" xmlns:xlink="http://www.w3.org/1999/xlink" width="200" height="200"><defs><style type="text/css"></style></defs><path d="M313.6 908.8c-4.8 0-9.6-1.6-14.4-3.2-11.2-4.8-19.2-16-17.6-28.8V784H126.4C83.2 784 48 748.8 48 704V195.2c0-44.8 35.2-80 78.4-80h772.8c43.2 0 78.4 35.2 78.4 80v510.4c0 44.8-35.2 80-78.4 80H473.6L334.4 902.4c-6.4 4.8-12.8 6.4-20.8 6.4zM126.4 147.2c-25.6 0-46.4 20.8-46.4 48v510.4c0 27.2 20.8 48 46.4 48h156.8c8 0 16 3.2 22.4 9.6 6.4 6.4 9.6 14.4 9.6 22.4v92.8l139.2-116.8c6.4-4.8 12.8-8 20.8-8h424c25.6 0 46.4-20.8 46.4-48V195.2c0-27.2-20.8-48-46.4-48H126.4z" p-id="3122" fill="#1296db"></path><path d="M270.4 452.8a32 32 0 1 0 64 0 32 32 0 1 0-64 0zM480 452.8a32 32 0 1 0 64 0 32 32 0 1 0-64 0zM689.6 452.8a32 32 0 1 0 64 0 32 32 0 1 0-64 0z" p-id="3123" fill="#1296db"></path></svg>