<?xml version="1.0" standalone="no"?><!DOCTYPE svg PUBLIC "-//W3C//DTD SVG 1.1//EN" "http://www.w3.org/Graphics/SVG/1.1/DTD/svg11.dtd"><svg t="1562132239986" class="icon" viewBox="0 0 1070 1024" version="1.1" xmlns="http://www.w3.org/2000/svg" p-id="3824" xmlns:xlink="http://www.w3.org/1999/xlink" width="208.984375" height="200"><defs><style type="text/css"></style></defs><path d="M1027.346405 873.411765h-63.581699c0-20.078431-3.346405-36.810458-6.692811-56.888889h40.156863v-40.156863c0-130.509804-87.006536-244.287582-210.823529-274.405229l-6.692811-3.346405c-10.039216-3.346405-20.078431-13.385621-20.078431-26.771242 0-10.039216 6.69281-20.078431 20.078431-26.771242 53.542484-23.424837 87.006536-76.96732 87.006536-137.202614 0-60.235294-36.810458-117.124183-97.045751-140.54902-6.69281-23.424837-20.078431-46.849673-33.464053-66.928104 103.738562 10.039216 184.052288 100.392157 184.052288 204.130719 0 50.196078-20.078431 100.392157-53.542484 137.202614l-13.385621 16.732026 20.078432 10.039216c110.431373 56.888889 180.705882 174.013072 180.705882 301.176471v70.274509c3.346405 20.078431-10.039216 33.464052-26.771242 33.464053zM572.235294 491.921569c170.666667 56.888889 294.48366 217.51634 294.48366 404.915032v113.777778H16.732026v-113.777778c0-187.398693 123.816993-348.026144 294.48366-404.915032-76.96732-46.849673-127.163399-127.163399-127.163398-220.862745C184.052288 130.509804 297.830065 13.385621 438.379085 13.385621c140.54902 0 254.326797 113.777778 254.326797 257.673203 3.346405 93.699346-46.849673 174.013072-120.470588 220.862745zM73.620915 896.836601v56.888889h736.20915v-56.888889c0-200.784314-160.627451-364.75817-361.411764-368.104575H435.03268c-200.784314 3.346405-361.411765 167.320261-361.411765 368.104575z m368.104575-823.215686c-110.431373 0-197.437908 90.352941-197.437908 200.784314 0 107.084967 87.006536 197.437908 194.091503 200.784313h13.385621c107.084967-3.346405 194.091503-90.352941 194.091503-200.784313-6.69281-113.777778-93.699346-200.784314-204.130719-200.784314z" fill="#44c8c5" p-id="3825"></path></svg>