<?xml version="1.0" standalone="no"?><!DOCTYPE svg PUBLIC "-//W3C//DTD SVG 1.1//EN" "http://www.w3.org/Graphics/SVG/1.1/DTD/svg11.dtd"><svg t="1562132416585" class="icon" viewBox="0 0 1024 1024" version="1.1" xmlns="http://www.w3.org/2000/svg" p-id="4799" xmlns:xlink="http://www.w3.org/1999/xlink" width="200" height="200"><defs><style type="text/css"></style></defs><path d="M580.7104 486.6048H866.304a48.5376 48.5376 0 0 0 0-97.1776h-190.464l213.1968-217.8048a48.5376 48.5376 0 0 0-69.2224-67.9936L539.8528 389.4272h-44.7488L245.4528 105.5744a48.5376 48.5376 0 1 0-72.704 64.2048l193.2288 219.648H172.032a48.5376 48.5376 0 0 0 0 97.28h279.552l17.7152 20.0704v174.08H172.032a48.5376 48.5376 0 0 0 0 97.28h297.1648v154.4192a48.64 48.64 0 1 0 96.9728 0V778.0352h300.032a48.5376 48.5376 0 0 0 0-97.1776h-300.032V501.4528l14.6432-14.848z" p-id="4800" fill="#d4237a"></path></svg>